<svg xmlns="http://www.w3.org/2000/svg" id="Layer_2" data-name="Layer 2" width="2322.48" height="1613.28" viewBox="0 0 2322.48 1613.28"><defs><style>      .cls-1 {        opacity: .04;      }      .cls-2 {        opacity: .06;      }      .cls-3 {        opacity: .1;      }      .cls-4 {        fill: #004b6c;      }      .cls-5 {        fill: #003e59;      }      .cls-6 {        fill: #003352;      }      .cls-7 {        fill: #00628d;      }      .cls-8 {        fill: #0086bc;      }      .cls-9 {        fill: #e61418;      }      .cls-10 {        fill: #ee1519;      }      .cls-11 {        fill: #fff;      }      .cls-12 {        fill: #66c3ed;      }      .cls-13 {        fill: #bd2524;      }      .cls-14 {        fill: #cdd8de;      }      .cls-15 {        fill: #da2a28;      }      .cls-16 {        fill: #acd5dc;      }      .cls-17 {        fill: #a4c3d0;      }      .cls-18 {        fill: #aaddf6;      }      .cls-19 {        fill: #dce4eb;      }      .cls-20 {        fill: #d6845f;      }      .cls-21 {        fill: #dbe9f2;      }      .cls-22 {        fill: #d9835b;      }      .cls-23 {        fill: #e29069;      }      .cls-24 {        fill: #061e35;      }      .cls-25 {        fill: #5b4436;      }      .cls-26 {        fill: #347eed;      }      .cls-27 {        fill: #30a8f2;      }      .cls-28 {        fill: #47322b;      }      .cls-29 {        fill: #617b88;      }      .cls-30 {        fill: #4fb1dc;      }      .cls-31 {        opacity: .15;      }      .cls-32 {        opacity: .5;      }    </style></defs><g id="Layer_3" data-name="Layer 3"><g><g><path class="cls-18" d="M2012.52,1567.6c88.25-148.11,138.96-321.2,138.96-506.13,0-546.89-443.35-990.24-990.24-990.24S171,514.58,171,1061.47c0,184.93,50.71,358.01,138.96,506.13H2012.52Z"></path><g><g><rect class="cls-11" x="1303.45" y="1051.36" width="587.57" height="517.63" transform="translate(3194.46 2620.34) rotate(180)"></rect><rect class="cls-30" x="1349.34" y="1098.48" width="495.77" height="435.2" transform="translate(3194.46 2632.15) rotate(180)"></rect><g><rect class="cls-7" x="1502.98" y="870.1" width="18.3" height="12.83" transform="translate(3024.27 1753.03) rotate(180)"></rect><path class="cls-7" d="M1619.7,971.5v-97.54c0-31.33-25.49-56.82-56.82-56.82h-1.2c-31.33,0-56.82,25.49-56.82,56.82h15.05c0-23.03,18.74-41.77,41.77-41.77h1.2c23.03,0,41.77,18.74,41.77,41.77v97.54h-7.5v64.12h30.14v-64.12h-7.58Z"></path></g><path class="cls-8" d="M1441.22,1177.54h312.01c17.85,0,32.33-4.47,32.33-22.33v-55.46h-376.67v55.46c0,17.85,14.47,22.33,32.33,22.33Z"></path></g><rect class="cls-8" x="1385.25" y="1035.62" width="423.97" height="15.56" transform="translate(3194.46 2086.8) rotate(180)"></rect></g><path class="cls-12" d="M643.22,1460.79h-109.46c-17.32,0-31.41-14.09-31.41-31.41v-380.62c0-17.39,14.38-32.08,31.41-32.08h147.34c9.2,0,16.41-6.92,16.41-15.74v-165.78h15v165.78c0,17.24-13.8,30.74-31.41,30.74h-147.34c-8.89,0-16.41,7.82-16.41,17.08v380.62c0,9.05,7.36,16.41,16.41,16.41h109.46v15Z"></path><path class="cls-12" d="M665.73,1150.71h-99.06c-12.02,0-21.8-9.78-21.8-21.8v-48.08c0-12.27,9.98-22.64,21.8-22.64h156.11c9.36,0,16.41-6.7,16.41-15.58v-200.37h15v200.37c0,17.15-13.8,30.58-31.41,30.58h-156.11c-3.56,0-6.8,3.64-6.8,7.64v48.08c0,3.75,3.05,6.8,6.8,6.8h99.06v15Z"></path><path class="cls-12" d="M1153.37,1242.4c-17.64,0-32.53-14.38-32.53-31.41v-179.31h-189.92c-17.03,0-31.41-14.69-31.41-32.08v-156.53h15v156.53c0,9.26,7.52,17.08,16.41,17.08h204.92v194.31c0,8.74,8.18,16.41,17.51,16.41l367.41-1c5.43,0,9.84-4.4,9.84-9.82v-39.03h15v39.03c0,13.68-11.13,24.82-24.82,24.82l-367.41,1Z"></path><path class="cls-12" d="M1102.83,1286.16c-6.66,0-12.91-2.6-17.6-7.31-4.69-4.71-7.26-10.97-7.23-17.62l.81-172.38c.02-4.2-1.49-7.95-4.38-10.84-3.09-3.1-7.36-4.81-12.03-4.81h-172.43c-17.03,0-31.41-14.77-31.41-32.24l-1-194.58,15-.08,1,194.61c0,9.39,7.52,17.28,16.41,17.28h172.43c8.69,0,16.74,3.28,22.66,9.23,5.68,5.71,8.78,13.34,8.75,21.5l-.81,172.38c-.01,2.63,1,5.11,2.86,6.97,1.86,1.87,4.33,2.89,6.96,2.89l564.62-1c2.64,0,5.1-1.02,6.96-2.88,1.86-1.86,2.87-4.33,2.87-6.95l-.14-82.82,15-.03,.14,82.82c.01,6.64-2.57,12.88-7.25,17.58-4.69,4.7-10.93,7.28-17.56,7.28l-564.62,1Z"></path><g><g><path class="cls-21" d="M635.39,1490.09c-12.15,0-22-9.85-22-22v-340.08c0-12.15,9.85-22,22-22s22,9.85,22,22v340.08c0,12.15-9.85,22-22,22Z"></path><path class="cls-21" d="M703.65,1490.09c-12.15,0-22-9.85-22-22v-340.08c0-12.15,9.85-22,22-22s22,9.85,22,22v340.08c0,12.15-9.85,22-22,22Z"></path><path class="cls-21" d="M771.91,1490.09c-12.15,0-22-9.85-22-22v-340.08c0-12.15,9.85-22,22-22s22,9.85,22,22v340.08c0,12.15-9.85,22-22,22Z"></path><path class="cls-21" d="M840.17,1490.09c-12.15,0-22-9.85-22-22v-340.08c0-12.15,9.85-22,22-22s22,9.85,22,22v340.08c0,12.15-9.85,22-22,22Z"></path><path class="cls-21" d="M908.43,1490.09c-12.15,0-22-9.85-22-22v-340.08c0-12.15,9.85-22,22-22s22,9.85,22,22v340.08c0,12.15-9.85,22-22,22Z"></path><path class="cls-21" d="M976.69,1490.09c-12.15,0-22-9.85-22-22v-340.08c0-12.15,9.85-22,22-22s22,9.85,22,22v340.08c0,12.15-9.85,22-22,22Z"></path></g><g><rect class="cls-21" x="594.18" y="1121.75" width="423.71" height="43.34" rx="10.31" ry="10.31"></rect><rect class="cls-21" x="594.18" y="1430.99" width="423.71" height="43.34" rx="10.31" ry="10.31"></rect></g></g><g><path class="cls-8" d="M1644.02,1444.8c29.83,0,55.04-23.7,55.04-51.75v-37.96c0-3.98,6.24-8.6,14.29-8.6h86.72c11.25,0,20.38-9.12,20.38-20.38h0c0-11.25-9.12-20.38-20.38-20.38h-86.72c-30.35,0-55.04,22.14-55.04,49.35v37.96c0,4.32-6.14,10.99-14.29,10.99s-14.29-6.67-14.29-10.99v-221.24h-40.75v221.24c0,28.05,25.21,51.75,55.04,51.75Z"></path><rect class="cls-8" x="1583.38" y="1171.82" width="52.62" height="14.65" transform="translate(3219.37 2358.28) rotate(180)"></rect><rect class="cls-8" x="1583.38" y="1327.45" width="52.62" height="14.65" transform="translate(3219.37 2669.55) rotate(180)"></rect><rect class="cls-8" x="1583.38" y="1373.74" width="52.62" height="14.65" transform="translate(3219.37 2762.13) rotate(180)"></rect><rect class="cls-8" x="1651.98" y="1374.07" width="52.62" height="14.65" transform="translate(3356.57 2762.8) rotate(180)"></rect><rect class="cls-8" x="1730.91" y="1318.62" width="52.62" height="14.65" transform="translate(3083.16 -431.26) rotate(90)"></rect></g><rect class="cls-7" x="1618.78" y="986.51" width="38.34" height="26.67"></rect><rect class="cls-7" x="1644.34" y="944.83" width="14.21" height="71.68"></rect><rect class="cls-11" x="1303.45" y="1100.54" width="45.9" height="220.05"></rect><g><path class="cls-20" d="M2053.04,1528.12c2.84-1.89,14.2-16.09,17.04-20.63,2.84-4.54,64.75,25.36,63.04,38.05-1.7,12.69-56.8,17.04-56.8,17.04,0,0-13.28,4.11-52.81,1.03-12.1-.94,29.52-35.49,29.52-35.49Z"></path><path class="cls-20" d="M2070.08,1507.49c-1.5,2.41-5.4,7.52-9.15,12.08,5.25,9.53,10.95,18.73,15.1,28.91,1.71,4.19,3.2,8.93,3.99,13.76,12.36-1.24,51.67-6.01,53.11-16.7,1.7-12.69-60.2-42.6-63.04-38.05Z"></path><g><path class="cls-6" d="M2060.46,1517.46s7.92-25.42,30.67-42.43c0,0,59.6,31.99,100.95,46.26,22.7,7.83,37.64,31.53,37.64,31.53,0,0-8.56,20.55-35.08,11.92-21.53-7.01-74.41-2.19-79.52-.49-5.11,1.7-7.38-21.83-20.16-27.28-12.78-5.45-34.5-19.51-34.5-19.51Z"></path><g class="cls-31"><path d="M2075.1,1514.15c23.02-4.26,46.6-9.26,70.27-12.19-29.01-13.39-54.24-26.93-54.24-26.93-22.75,17-30.67,42.43-30.67,42.43,0,0,2.11,1.37,5.4,3.41,2.15-3.38,5.39-6,9.24-6.72Z"></path></g><path class="cls-4" d="M2127.53,1335.12c-66.72-13.22-134.35-26.75-201.57-37.46-30.72-3.77-62.19-11.77-93.56-6.05-18.79,3.74-34.29,23.06-34.3,42.34-.02,37.23,70.72,87.28,99.42,113.67,34.98,28.38,92.69,73.28,117.79,89.28,28.41,18.11,45.14-19.44,45.14-19.44-31.54-26.88-64.1-75.48-90.94-106.12,49.33,17.54,81.63,32.49,130.17,52.42,87.36,33.05,118.89-107.57,27.85-128.63Z"></path><path class="cls-5" d="M2127.53,1335.12c-44.21-8.76-88.82-17.65-133.44-25.77,1.5,1.09,2.94,2.26,4.27,3.55,10.58,10.26,10.46,27.72,0,38.15-9.25,9.23-22.92,11.36-35.44,11.59-15.13,.27-30.42-2.22-45.24-5.06-15.83-3.04-31.48-7.01-46.97-11.46-13.53-3.88-26.96-8.14-40.22-12.88-8.38-3-17.37-5.84-25.11-10.28-1.75-1-3.2-2.28-4.37-3.74-1.87,4.73-2.92,9.72-2.92,14.72-.02,37.23,70.72,87.28,99.42,113.67,34.98,28.38,92.69,73.28,117.79,89.28,28.41,18.11,45.14-19.44,45.14-19.44-31.54-26.88-64.1-75.48-90.94-106.12,49.33,17.54,81.63,32.49,130.17,52.42,87.36,33.05,118.89-107.57,27.85-128.63Z"></path><path class="cls-24" d="M2127.53,1335.12c-10.39-2.06-20.8-4.12-31.22-6.18-7.51,13.37-20.33,22.97-32.11,32.34-25.23,20.09-51.2,39.11-78.45,55.96,40.66,15.11,70.93,28.85,113.94,46.51,87.36,33.05,118.89-107.57,27.85-128.63Z"></path><path class="cls-4" d="M2181.9,1356.13c-15.77-94.18-140.89,12.85-196.44,34.93-40.88,22.82-111.89,65.88-163.79,106.16-25.4,19.72-10.11,64.39,22.15,69.49,75.15,1.4,127.26,.11,202.42-.14,15.9-.05,23.28-45.63,14.23-49.11-8.96-3.45-31.28-13.08-54.42-8.48,43.61-8.68,60.94,.22,122.83-25.85,8.15-3.44,69.01-31.58,53.03-127Z"></path><path class="cls-20" d="M2054.76,1095.01c-11.76-19.01-31.32-54.52-51.95-63.62-8.68-3.26-86.81-13.26-145.02-13.25h0l-36.42-3.37c-2.73-.25-5.48,.25-7.94,1.47l-26.16,12.88s-26.53,18.83-24.75,19.75c1.79,.92,3.82,6.03,14.28,.45,7.18-3.83,19.7-10.93,21.65-10.93s15.19-1.99,11.61-.6c-3.57,1.38-17.73,7.53-17.73,7.53,0,0-.74,9.28,10.87,6.98,11.61-2.3,20.59-1.76,25.57-1.08,8.24,1.13,24.12-3.27,31.3-7.21,36.5,8.36,82.03,24.89,117.03,34.61,9.14,14.93,15.17,32.32,22.29,48.37,21.61,36.01,75.75,4.77,55.35-31.97Z"></path><path class="cls-3" d="M2054.76,1095.01c-11.76-19.01-31.32-54.52-51.95-63.62-6.63-2.49-53.86-8.92-101.74-11.81-13.09,10.93-21.31,16.8-28.71,16.85-6.45,.04-8.3-.24-13.68,1.84,.19-.06-1.08,.48-1.46,.66-1.36,.62-2.73,1.23-4.1,1.82-3.58,1.55-7.04,2.93-10.86,3.73-6.13,1.28-12.34,1.65-18.58,1.7,.08,0-1.89,.01-2.86,0-.62,.13-2.52,.41-2.8,.48-2.53,.64-4.97,1.56-7.43,2.42-4.49,1.58-8.97,2.56-13.61,3.19,1.53,.45,3.55,.54,6.23,0,11.61-2.3,20.59-1.76,25.57-1.08,8.24,1.13,24.12-3.27,31.3-7.21,36.5,8.36,82.03,24.89,117.03,34.61,9.14,14.93,15.17,32.32,22.29,48.37,21.61,36.01,75.75,4.77,55.35-31.97Z"></path><path class="cls-19" d="M2026.08,1051.58c-.36,.06-.72,.12-1.08,.18-2.7,.5-5.38,1.07-8.03,1.76-2.57,.67-5.07,1.51-7.59,2.35h-.03c-.84,.42-1.69,.81-2.54,1.21-9.8,4.76-19.16,10.45-27.99,16.82-.94,.68-1.87,1.38-2.8,2.07-.1,.08-.18,.15-.29,.25-.59,.5-1.18,.99-1.77,1.49,1.06,.3,2.12,.6,3.17,.89,9.14,14.93,15.17,32.32,22.29,48.37,21.61,36.01,75.75,4.77,55.35-31.97-7.17-11.59-17.24-29.3-28.68-43.44Z"></path><path class="cls-4" d="M2039.41,1347.92l17.75,133.44s84.31,14.16,114.98-37.77c21.47-36.35,6.64-104.04,6.64-104.04l-139.37,8.37Z"></path><g><path class="cls-20" d="M2019.63,935.54c-18.08-9.15-60.76-9.89-77.59,5.52-5.74,5.25-17.19,21.39-18.71,24.87-1.53,3.48-2.47,14.54-2.47,14.54,0,0-22.61,23.02-22.43,26.11,.18,3.07,9.39,7.2,9.39,7.2,0,0-4.2,34.33-2.94,38.76,3.51,12.29,21.8,11.91,27.46,11.67,3.03-.12,7.49-.45,12.72-.88l12.55,32.82,64.11-18.4-16.08-24.49c8.21-10.72,33.57-46.72,34.71-58.11,1.33-13.33-2.65-50.46-20.73-59.61Z"></path><path class="cls-1" d="M1932.35,1064.22c3.03-.12,7.49-.45,12.72-.88l7.4,19.35c1.22-1.41,2.42-2.84,3.59-4.3,.14-.18,.23-.29,.3-.37,.11-.15,.23-.32,.37-.52,.52-.73,1.06-1.45,1.57-2.18,1.15-1.63,2.25-3.29,3.3-4.98,2.03-3.26,3.83-6.65,5.43-10.13-.38,.73,1.09-2.97,1.33-3.65,.43-1.21,.91-2.4,1.31-3.62,.49-1.47,.9-2.96,1.25-4.47,.15-.64,.29-1.29,.41-1.93,.05-.28,.24-2.46,.25-1.89,.04-.93,.08-2.04,.08-2.37,0-.57-.04-1.13-.05-1.69-.26,.06-.52,.09-.72,.07-.44,.12-.88,.23-1.31,.37-.43,.13-.87,.31-1.31,.45-2.16,1.3-4.53,2.31-6.7,3.62-5.31,3.2-10.39,6.79-15.86,9.7-11.82,6.29-25.24,8.87-37.34,3.53,6.61,6.37,19.42,6.09,23.99,5.9Z"></path><path class="cls-25" d="M1931.91,926.87c-1.83-.25-3.68,18.05,4.96,22.69,7.37,3.96,18.85,8.04,22.17,13.29,3.32,5.25,3.88,26.41,8.8,29.59,4.92,3.18,14.08,2.56,16.35,2.94,2.28,.39,10.04-1.98,7.49,13.04-2.55,15.02-.61,19.97-.12,27.64,.51,8.11,14.09,17.2,14.09,17.2,0,0,18.08-22.03,23.56-26.71,5.48-4.69,27.84-23.17,17.92-55.76-9.92-32.59-37.27-48-55.94-48.36-18.67-.36-46.01,6.23-59.29,4.45Z"></path><g class="cls-2"><path d="M1979.1,999.27c3.1-4.37,8.36-6.81,13.67-6.09,2.8,.38,5.44,1.6,6.11,4.69,1.58,7.21-.79,16.36-5.72,18.75s-20.21,9.52-21.73,.83c-.84-4.79,3.07-11.71,7.66-18.18Z"></path></g><path class="cls-20" d="M1977.06,996.2c3.1-4.37,8.36-6.81,13.67-6.09,2.8,.38,5.44,1.6,6.11,4.69,1.58,7.21-.79,16.36-5.72,18.75s-18.1,9.72-19.92,3.28c-1.32-4.68,1.26-14.15,5.85-20.63Z"></path><path class="cls-10" d="M1944.98,930.71s47.83,51.61,84.18,97.69c0,0,52.03-43.39,10.41-92.25-43.24-50.76-94.6-5.44-94.6-5.44Z"></path><path class="cls-9" d="M2039.58,936.16c-4.44-5.22-8.97-9.4-13.52-12.74,4.15,9.93,6.82,20.59,5.59,31.34-1.35,11.84-6.71,22.21-15.02,30.72-4.1,4.2-8.63,7.88-13.43,11.22,8.78,10.41,17.67,21.21,25.96,31.72,0,0,52.03-43.39,10.41-92.25Z"></path><path class="cls-9" d="M1955.43,927.08c-.18-1.6,.15-3.13,.82-4.52l-53.32-9.05s.21,11.89,8.64,15.58c8.43,3.69,52.43,22.58,52.43,22.58,0,0-7.65-16.56-8.57-24.59Z"></path></g><path class="cls-19" d="M2025.28,1077.92c37.4,8.45,61.21,36.9,98.3,97.31,36.8,59.94,54.89,164.39,58.31,180.89l-137.98,12.78s-22.69-53.2-28.37-57.31c-5.69-4.11-58.09-70.43-66.5-105.11-4.65-19.16-12.6-72.72,13.87-114.27,0,0,30.07-21.59,62.37-14.29Z"></path><path class="cls-4" d="M2161.02,1264.99c-8.14,23.53-27.17,38.1-42.09,39.52-54.59,5.18-117.88-84.81-130.58-112.63-2.06-4.51-4.08-9.05-6.08-13.59-1.3,2.53-3.32,4.73-6.17,6.23-9.32,4.92-19.2,8.06-29.34,10.6,.74,4.51,1.55,8.36,2.28,11.36,8.41,34.68,55.77,101.77,61.46,105.88,5.69,4.11,40.73,78.69,40.73,78.69l130.66-34.93c-2.11-10.18-6.66-45.13-20.88-91.14Z"></path><path class="cls-5" d="M1989,1270.03c.65-12.9,2.58-25.72,4.34-38.5,.16-1.13,.36-2.27,.47-3.4-.46,5,.01-.12,.14-1.15,.3-2.41,.59-4.82,.83-7.24,.44-4.36,.75-8.75,.59-13.14-.05-1.22,.07-2.39,.3-3.52-3.43-4.41-5.96-8.23-7.32-11.22-2.06-4.51-4.08-9.05-6.08-13.59-1.3,2.53-3.32,4.73-6.17,6.23-9.32,4.92-19.2,8.06-29.34,10.6,.74,4.51,1.55,8.36,2.28,11.36,5.06,20.87,24.22,53.46,39.92,77.02-.23-4.59-.18-9.13,.04-13.47Z"></path><path class="cls-20" d="M1989.11,1199.43c-23.89-5.29-44.5-47.21-61.02-29.04-24.81,27.28-49.71,73.32-49.71,73.32,0,0-33.25-25.44-108.79-78.31-11.43-8-31.95,16.13-21.36,27.78,52.25,57.44,81.48,99.17,123.06,121.27,30.22,16.06,35.09,1.57,51.04-18.52,14.63-18.43,28.62-37.51,41.98-56.84,8.84-12.82,17.57-26.07,25.99-39.39-.4-.09-.79-.18-1.19-.27Z"></path><g class="cls-3"><path d="M1989.11,1199.43c-13.29-2.94-25.56-17.21-36.68-26.17,.62,12.55-40.79,18.99-44.08,31.12-3.71,13.67,30.5,32.9,23.23,45-6.64,11.05-13.56,22.46-21.81,32.4-7.61,9.17-18.14,13.45-29.94,11.03-6.86-1.41-13.52-4.88-19.79-7.93-5.86-2.85-11.57-6.02-17.13-9.43-12.07-7.41-23.43-15.96-34.36-24.95-17.88-14.71-34.4-30.95-51.05-47.03,46.58,52.14,74.73,90.23,113.79,110.98,30.22,16.06,35.09,1.57,51.04-18.52,14.63-18.43,28.62-37.51,41.98-56.84,8.84-12.82,17.57-26.07,25.99-39.39-.4-.09-.79-.18-1.19-.27Z"></path></g><g class="cls-2"><path d="M1762.26,1164.05c-1.26,.26-2.54,.72-3.79,1.35,1.19-.29,2.4-.46,3.63-.48,.04-.29,.1-.59,.16-.88Z"></path></g><path class="cls-20" d="M1758.45,1132.48c-3.49-3.83-10.74-22.02-10.74-22.02-9.81-3.18-9.62,8.47-7.45,14.88,3.05,9.01,6.57,10.89,4.44,14.82-.84,1.56-5.38,1.5-10.82,.74l-17.11-3.8c-3.59-.8-7.13,1.47-7.93,5.05-.68,3.06,.88,6.09,3.58,7.41-2.48,.52-4.54,2.43-5.13,5.06-.73,3.27,1.1,6.51,4.16,7.65-2.36,.59-4.31,2.46-4.87,5-.79,3.57,1.45,7.1,5,7.91-2.29,.63-4.17,2.48-4.72,4.97-.79,3.58,1.47,7.13,5.05,7.92l6.67,1.48c5.74,3.4,23.84,13.43,33.55,10.67,13.93-3.96,22.2-21.38,22.2-21.38,2.29-10.31-3.44-32.7-15.89-46.38Z"></path><path class="cls-5" d="M2181.9,1356.13c-.77-4.59-1.8-8.7-3.07-12.37-.7,19.19-5.03,38.29-14.66,55.06-18.01,31.37-51.41,48.71-85.06,58.41-14.03,4.04-164.02,48.53-164.52,48.76-3.9,1.79-7.59,3.83-11.22,6.02,.93,.3,1.86,.6,2.8,.87,7.88,2.32,69.34,18.59,62.53,23.01-52.27,33.94-157.54-2.17-159.4-6.53,2.25,17.4,15.39,34.33,34.51,37.35,75.15,1.4,127.26,.11,202.42-.14,15.9-.05,23.28-45.63,14.23-49.11-8.96-3.45-31.28-13.08-54.42-8.48,43.61-8.68,60.94,.22,122.83-25.85,8.15-3.44,69.01-31.58,53.03-127Z"></path><path class="cls-19" d="M1952.75,1096.15l-1.94,19.91,77.05-37.25-12.85-13.98c-5.34,2.06-20.46,3.21-62.26,31.32Z"></path></g><path class="cls-4" d="M1950.81,1116.06l-4.04,18.65c1.08-.65,6.39-18.65,15.31-25.31,10.77-8.03,32-13.19,56.5-.95,28.96,14.47,77.71,70.84,117.98,151.73,15.74,31.62,13.67,61.77,23.4,80.6l6.01-56.12s-16.75-47.19-38.46-82.28c-3.51-5.67-7.14-11.02-10.86-15.81-32.9-42.38-71.99-97.91-112.86-96.14-40.88,1.77-52.98,25.62-52.98,25.62Z"></path><path class="cls-4" d="M2027.62,1078.5s37.51,13.7,57.58,43.99c20.07,30.29,48.75,90.91,48.75,90.91l37.79,91.11s-21.26-100.17-74.62-175.42c-18.88-26.63-39.3-43.56-69.51-50.59Z"></path><path class="cls-19" d="M2001.23,1101.44c-16.15-5.56-47,1.83-69.89,43.82s-34.14,59.28-34.14,59.28c0,0,28.26,33.35,66.34,46.37,0,0,51.46-75.12,56.71-88.64,5.25-13.52,13.96-49.48-19.02-60.83Z"></path><g class="cls-2"><path d="M2013.97,1163.06c-6.84,12.14-15.1,24.37-25.09,34.13-10.03,9.79-21.79,17.94-33.78,25.14-7.51,4.51-15.13,9.12-23.2,12.45,9.28,6.25,19.99,12.14,31.64,16.12,0,0,51.46-75.12,56.71-88.64,2.3-5.93,5.27-16.17,5.09-26.76-2.55,9.58-6.4,18.72-11.38,27.56Z"></path></g></g><g><circle class="cls-12" cx="1538.09" cy="1234.15" r="16.25"></circle><circle class="cls-18" cx="1538.09" cy="1234.15" r="8"></circle></g><g><circle class="cls-12" cx="1684.71" cy="1234.15" r="16.25"></circle><circle class="cls-18" cx="1684.71" cy="1234.15" r="8"></circle></g><g><path class="cls-23" d="M610.03,842.34c-28.69-4.01-57.9-8.71-86.46-13.77-22.2-25.23-36.53-53.36-47.29-85.33l-59.12,21.78c10.41,30.39,25.21,62.28,45.3,87.99,11.61,12.64,23,36.84,42.1,35.73,46.47-2.38,93.18-5.94,139.41-11.19l3.15-28.44c-11.32-1.38-25.78-5.17-37.09-6.77Z"></path><path class="cls-22" d="M528.06,877.87c-8.43-2.94-16.77-6.57-24.3-11.4-7.76-4.98-16.29-11.4-20.49-19.84-4.97-9.98-1.94-19.54,4.62-27.81,5.2-6.57,11.21-11.56,14.65-18.54-10.98-17.6-19.37-36.52-26.27-57.04l-59.12,21.78c10.41,30.39,25.21,62.28,45.3,87.99,11.61,12.64,23,36.84,42.1,35.73,17.94-.92,35.91-2.02,53.87-3.32-10.37-1.67-20.55-4.14-30.36-7.56Z"></path><g><path class="cls-6" d="M383.35,1504.25s-8.54,26.46-6.89,48.43c.64,8.46,6.95,15.31,15.34,15.31h106.21s11.01-1.89,13.34-8.8c0,0-4.59-14.69-21.13-17.6-38.93-6.86-47.75-25.49-62.05-36.18,0,0-47.94-1.15-44.83-1.15Z"></path><path class="cls-6" d="M278.22,1506.41s13.08,26.02,18.11,27.9c3.56,1.34,18.86,6.6,23.44,19.87,2.37,6.88-1.45,14.17-8.73,14.17h-77.58s-15.09-.63-13.83-18.23c1.26-17.6,9.43-49.04,9.43-49.04l49.16,5.32Z"></path><path class="cls-19" d="M442.46,822.97c-8.54-14.7-17.06-54.72-25.11-69.68-11.55-23.6-35.48-57.22-5.45-77.17,34.5-20.43,45.57,4.33,59.95,28.62,7.92,13.38,27.45,66.54,35.19,80.83-12.07,9.11-62.65,36.55-64.59,37.39Z"></path><path class="cls-19" d="M241,1010.72c1.12-27.09-.71-67.86,9.4-120.61,6.87-35.87-12.94-113.81-26.59-151.73-13.65-37.91-8.78-48.19-2.84-57.26,8.19-12.49,70.59-43.9,119.11-40.87,48.53,3.03,102.38,23.66,117.53,41.05,25.81,29.61-5.08,72.26-12.93,180.73-2.99,41.32-203.69,148.69-203.69,148.69Z"></path><path class="cls-14" d="M240.99,1010.72s42.89-22.94,89.31-51.7c-14.16-23.89-25.34-49.55-33.75-74.96-4.94-14.94-8.96-30.21-11.75-45.71-2.67-14.86-6.05-29.5-11.19-43.73-4.85-13.42-12.77-29.34-22.03-39.78-5.37-6.05-9.37-9.51-15.73-13.05-4.18-2.33-4.98-2.64-9.55-3.88-1.21-.33-2.13-.57-2.93-.76,.15,.41,.28,.81,.43,1.23,13.65,37.91,33.46,115.86,26.59,151.73-10.11,52.75-8.28,93.52-9.4,120.61Z"></path><path class="cls-4" d="M450.48,830.52c-11.15-80.7-40.49-174.41-39.78-178.16-7.37-2.81-19.33-5.91-27.55-7.91,16.4,37.19,19.62,77.14,19.62,77.14l-71.15,3.12s-3.31-44.74-21.59-83.97c-8.05,1.25-19.45,5.87-27.2,8.17,38.73,91.08,4.78,165.51-37.54,224.21-.17,1.38-16.15,144.48-16.15,144.48-8.47,165.14-3.79,332.88-4.29,498.27l60.93,1.89c12-111.68,38.81-287.59,56.6-386.76l5,.1c14.84,128.49,24.14,258.52,30.78,387.74l67.68,.53c5.71-254.81,18.44-398.38,4.64-688.84Z"></path><path class="cls-5" d="M264.04,1517.08c-9.38-44.57-9.32-90.72-7.21-136.02,2.24-47.91,7.22-95.75,7.16-143.75-.04-32.25-1.87-64.57-2.61-96.81-.79-34.19-1.47-68.39-2.54-102.58-1.76-56.41-4.58-112.85-10.58-168.98-.99,1.4-1.98,2.79-2.97,4.17-.17,1.38-16.15,144.48-16.15,144.48-8.47,165.14-3.79,332.88-4.29,498.27l39.19,1.21Z"></path><path class="cls-5" d="M390.14,1295.03c-15-76.13-42.85-164.29-42.99-164.31,.4,3.51,1.75,13.79,2.14,17.3,4.47,40.12,8.51,80.34,11.98,120.63l1.33,15.11,1.21,15.12c.79,10.08,1.66,20.16,2.39,30.25,1.42,20.17,2.97,40.36,4.14,60.55,2.64,40.4,6.23,88.68,7.81,129.17h15.37c2.01-98.41-5.01-136.04-3.39-223.81Z"></path><g><g><path class="cls-29" d="M372.24,830.54c-3.36-1.64-4.75-5.68-3.11-9.04l18.87-38.72c4.11-8.44,15.16-13.35,22.76-7.84,6.18,4.47,15.39,13.02,21.93,20.53,2.45,2.82,4.09,7.03,2.46,10.39s-8.13,8.78-11.48,7.14l2.04-4.54-25.4-12.07c-1.74-.85-3.84-.12-4.69,1.61l-14.34,29.41c-1.64,3.36-5.68,4.75-9.04,3.11Z"></path><g><path class="cls-29" d="M379.85,834.21l-14.32-6.98-26.77,54.92c-1.93,3.95-.28,8.72,3.67,10.65,3.95,1.93,8.72,.28,10.65-3.67l26.77-54.92Z"></path><rect class="cls-29" x="350.03" y="843.3" width="24.16" height="16.03" rx="3.13" ry="3.13" transform="translate(409.66 -72.59) rotate(25.99)"></rect><path class="cls-29" d="M402.88,795.59l25.23,12.3-2.15,4.4c-.4,.82-1.43,1.15-2.3,.72h0l-.88-2.2-2.28,.67-.88-2.2-2.28,.67-.88-2.2-2.28,.67-.88-2.2-2.28,.67-.88-2.2-2.28,.67-.88-2.2-2.28,.67-.88-2.2-2.28,.67-1.58-.77,2.87-5.89Z"></path><path class="cls-10" d="M418.86,824.72l-2.5,.86-.86-2.5-2.5,.86-.86-2.5-2.5,.86-.86-2.5-2.5,.86-.86-2.5-2.5,.86-.86-2.5-2.5,.86-.86-2.5-2.5,.86-.86-2.5-1.68-.82c-1.11,2.29-2.24,4.6-3.35,6.88l.08,.04-23.3-7.7c-12.21-1.5-21.77,10.31-17.76,21.94,0,0,2.12,3.6,3.99,4.51l20.43,9.96c1.3,.63,1.84,2.2,1.2,3.5l-4.71,9.66c-.63,1.3-2.2,1.84-3.5,1.2l-7.05-3.44c-2.56-1.25-4.64,.74-3.87,4.89,0,0,6.63,19.7,6.31,20.36l-53.81,110.39c-2.52,5.17-.72,11.55,4.33,14.31,5.38,2.95,12.07,.77,14.73-4.68l78.29-160.6,2.32-4.77,1.93-3.96c1.32-2.7,4.58-3.83,7.28-2.51h0l3.35-6.88-1.68-.82Z"></path></g></g><path class="cls-23" d="M304.86,916.18s32.44-16.66,45.9-11.88l4.79,51.47s-7.97,2.45-16.41,2.87c-31.98,1.59-40.12-8.46-48.16-15.3,0,0-9.65-21.63,13.87-27.17Z"></path><path class="cls-23" d="M374.54,917.01c-.08,0-.15,0-.23,0l-33.99-1.3c-3.31-.13-5.89-2.91-5.77-6.23,.13-3.31,2.92-5.88,6.22-5.77l33.99,1.3c3.31,.13,5.89,2.91,5.77,6.23-.12,3.23-2.78,5.77-5.99,5.77Z"></path><path class="cls-23" d="M373.18,930.25c-.08,0-.15,0-.23,0l-33.99-1.3c-3.31-.13-5.89-2.91-5.77-6.23,.13-3.31,2.92-5.88,6.22-5.77l33.99,1.3c3.31,.13,5.89,2.91,5.77,6.23-.12,3.23-2.78,5.77-5.99,5.77Z"></path><path class="cls-23" d="M374.1,943.32c-.29,.03-.58,.03-.88,.02l-33.69-1.72c-3.31-.17-5.85-2.99-5.69-6.3,.17-3.31,2.98-5.85,6.3-5.69l33.69,1.72c3.31,.17,5.85,2.99,5.69,6.3-.15,3.01-2.51,5.39-5.42,5.67Z"></path><path class="cls-23" d="M366.63,955.99c-.05,0-.1,0-.15,0l-26.08-.65c-3.31-.08-5.93-2.83-5.85-6.15,.08-3.31,2.85-5.91,6.15-5.85l26.08,.65c3.31,.08,5.93,2.83,5.85,6.15-.08,3.26-2.75,5.85-6,5.85Z"></path></g><g><path class="cls-23" d="M324.75,586.49s21.25-.93,32.76,1.57c8.64,1.87,14.91,8.75,16.45,16.92l1.75,9.36c.56,3.08,1.09,6.17,1.59,9.27,1.01,6.21,1.92,12.49,2.67,18.95l.1,.82c1.83,15.79-10.13,19.82-26.03,19.7-22.3-.17-35.31-19.85-35.07-23.53,1.51-23.27,5.17-50.24,5.8-53.06Z"></path><path class="cls-3" d="M357.5,588.05c8.64,1.87,14.91,8.75,16.45,16.92l1.75,9.36c.56,3.08,1.09,6.17,1.59,9.27,1.01,6.21,1.92,12.49,2.67,18.95l.1,.82c.31,2.72,.23,5.38-.19,7.95-23.26-3.86-43.52-19.32-48.45-43.56l.51-2.37s14.07-19.85,25.58-17.36Z"></path><path class="cls-23" d="M406.78,514.58s13.45,126.57-28.9,121.74c-37.15-4.23-52.46-22.49-52.46-22.49,0,0-35.47-89.36-12.6-109.31,17.85-15.57,93.96,10.06,93.96,10.06Z"></path><path class="cls-28" d="M350.45,486.73c23.2-.64,36.38,11.28,47.84,12.62,0,0,25.11,39.36-8.67,37.67-33.78-1.68-48.26,.17-48.66,8.21-.4,8.04,1.8,17.56,1.8,17.56l-8.2,3.62s-13.47-9.28-15.93-2.14c-3.29,9.54-1.2,24.13,8.06,25.94,0,0,.44,11.72-5.21,23.31,0,0-31.33-31.21-22.73-82.84,5.3-31.83,28.5-43.33,51.7-43.96Z"></path></g><g><path class="cls-13" d="M437.87,551.28s1.28,7.08-7.66,5.74c-10.23-1.53-19.74-4.26-21.42-4.9l-.43-12.34s21.58,2.74,29.51,11.5Z"></path><path class="cls-10" d="M414.5,533.62s3.35-64.74-65.59-58.33c-30.64,2.85-47.48,18.72-53.98,34.9-4.78,11.89-3.43,23.31,1.49,47.82,0,0,7.68-8.15,17.67-11.65,21.05-7.37,52.56-22.55,100.42-12.73Z"></path><path class="cls-9" d="M304.37,505.55c.33-4.64,1.27-9,2.71-13.05-5.69,5.38-9.68,11.51-12.17,17.69-4.78,11.89-3.43,23.31,1.49,47.82,0,0,7.68-8.15,17.67-11.65,.59-.21,1.2-.42,1.81-.64-7.87-11.89-12.52-26.18-11.51-40.16Z"></path><path class="cls-15" d="M400.98,520.92c3.27,.29,6.53,.63,9.78,1,1,.12,2,.24,3,.36,.97,6.68,.73,11.33,.73,11.33-47.85-9.81-79.37,5.36-100.42,12.73-9.99,3.5-17.67,11.65-17.67,11.65-1.2-5.96-1.8-7.7-2.54-12.3,34.62-24.03,93.96-25.95,107.11-24.78Z"></path><path class="cls-9" d="M412.43,530.76s-19.08-7.98-54.55-1.92c-13.12,2.24-39.29,9.63-39.29,9.63,0,0,29.6,16.31,39.29,18.58,6.09,1.43,16.25,1.64,26.92-2.2,10.67-3.83,43.43-11.41,53.08-3.58l-25.44-20.52Z"></path></g><path class="cls-23" d="M298.82,909.99c-24.6-11.42-48.88-24.22-71.59-38.93,9.01-38.66,30.05-73.14,44.72-110.44l-65.31-30.31c-12.36,34.42-75.68,160.73-40.57,177.24,40.33,18.96,97.61,33.49,141.11,42.11l5.66-33.37c-4.68-2.11-9.37-4.17-14.01-6.3Z"></path><path class="cls-22" d="M200.86,916.5c-7.47-4.72-18.05-9.91-22.62-17.8-4.82-8.31-3.2-18.14-.28-26.78,1.32-3.92,2.91-7.75,4.07-11.72,.93-3.21,1.75-6.46,3.61-9.3,5.65-8.63,17.44-9.13,26.73-9.4,8.03-.23,16.05,.32,24.06,.01,10.37-27.31,24.69-53.33,35.52-80.89l-65.31-30.31c-12.36,34.42-75.68,160.73-40.57,177.24,16.96,7.98,36.93,15.17,57.61,21.46-7.86-3.68-15.46-7.87-22.81-12.51Z"></path><path class="cls-19" d="M253.51,837.66c-41-1.64-85.56-20.79-87.45-21.3,6.53-29.06,31.04-95.75,46.15-124.8,20.34-39.08,84.03-.5,68.98,40.45-5.1,27.42-20.84,81.64-27.68,105.65Z"></path><path class="cls-14" d="M187.62,823.38c-.4-4.94,0-9.89,.59-14.8,.37-3.11,.82-6.21,1.29-9.3,.16-1.05,.32-2.09,.48-3.14,.07-.46,.14-.92,.21-1.38-.35,2.66-.3,2.25,.17-1.24,2.66-19.08,6.39-38.22,9.9-57.16,1.71-9.25,4.53-18.18,7-27.24,2.18-8.02,4.68-16.04,8.72-23.33-1.37,1.7-2.64,3.62-3.76,5.78-15.12,29.04-39.62,95.74-46.15,124.8,.8,.22,9.17,3.74,21.65,7.86-.03-.28-.06-.56-.08-.85Z"></path></g></g><rect class="cls-12" x="1120.84" y="70.96" width="15" height="968.04"></rect><rect class="cls-12" x="1113.34" y="816.3" width="30.01" height="60.01"></rect><g><circle class="cls-8" cx="1127.82" cy="846.31" r="7.78" transform="translate(45.03 1749.52) rotate(-76.72)"></circle><rect class="cls-8" x="1124.77" y="831.31" width="6.11" height="30.01"></rect></g><g><g><rect class="cls-30" x="1162.59" y="746.16" width="31.58" height="26.93"></rect><g><circle class="cls-8" cx="1211.65" cy="759.62" r="33.15"></circle><circle class="cls-11" cx="1211.65" cy="759.62" r="25.31"></circle></g><rect class="cls-12" x="1120.74" y="740.06" width="45.87" height="39.12"></rect></g><circle class="cls-8" cx="1211.6" cy="759.57" r="4.22"></circle><path class="cls-8" d="M1211.77,761.56c-.46,0-.93-.18-1.28-.53l-10.3-10.3c-.71-.71-.71-1.85,0-2.56s1.85-.71,2.56,0l10.3,10.3c.71,.71,.71,1.85,0,2.56-.35,.35-.82,.53-1.28,.53Z"></path></g><path class="cls-11" d="M643.24,1455.07c-7.81,0-14.15-6.21-14.15-13.88v-310.93c0-7.67,6.33-13.88,14.15-13.88s14.15,6.21,14.15,13.88v310.93c0,7.67-6.33,13.88-14.15,13.88Z"></path><path class="cls-11" d="M710.76,1455.07c-7.81,0-14.15-6.21-14.15-13.88v-310.93c0-7.67,6.33-13.88,14.15-13.88s14.15,6.21,14.15,13.88v310.93c0,7.67-6.33,13.88-14.15,13.88Z"></path><path class="cls-11" d="M778.27,1455.07c-7.81,0-14.15-6.21-14.15-13.88v-310.93c0-7.67,6.33-13.88,14.15-13.88s14.15,6.21,14.15,13.88v310.93c0,7.67-6.33,13.88-14.15,13.88Z"></path><path class="cls-11" d="M845.79,1455.07c-7.81,0-14.15-6.21-14.15-13.88v-310.93c0-7.67,6.33-13.88,14.15-13.88s14.15,6.21,14.15,13.88v310.93c0,7.67-6.33,13.88-14.15,13.88Z"></path><path class="cls-11" d="M913.3,1455.07c-7.81,0-14.15-6.21-14.15-13.88v-310.93c0-7.67,6.33-13.88,14.15-13.88s14.15,6.21,14.15,13.88v310.93c0,7.67-6.33,13.88-14.15,13.88Z"></path><path class="cls-11" d="M980.82,1455.07c-7.81,0-14.15-6.21-14.15-13.88v-310.93c0-7.67,6.33-13.88,14.15-13.88s14.15,6.21,14.15,13.88v310.93c0,7.67-6.33,13.88-14.15,13.88Z"></path><g><g><g><g><polygon class="cls-8" points="696.13 805.7 696.8 857.77 713.77 857.77 714.44 805.7 696.13 805.7"></polygon><polygon class="cls-10" points="737.82 805.7 738.49 857.77 755.46 857.77 756.13 805.7 737.82 805.7"></polygon></g><g><polygon class="cls-10" points="855.95 805.7 856.62 857.77 873.59 857.77 874.26 805.7 855.95 805.7"></polygon><polygon class="cls-8" points="897.64 805.7 898.31 857.77 915.28 857.77 915.95 805.7 897.64 805.7"></polygon></g></g><g><g><circle class="cls-7" cx="705.02" cy="838.56" r="7.78" transform="translate(-273.09 1332.05) rotate(-76.72)"></circle><rect class="cls-7" x="701.96" y="823.55" width="6.11" height="30.01"></rect></g><g><circle class="cls-7" cx="865.06" cy="838.56" r="7.78" transform="translate(-339.58 857.3) rotate(-45)"></circle><rect class="cls-7" x="862" y="823.55" width="6.11" height="30.01"></rect></g><g><circle class="cls-7" cx="746.69" cy="838.56" r="7.78" transform="translate(-240.99 1372.62) rotate(-76.72)"></circle><rect class="cls-7" x="743.64" y="823.55" width="6.11" height="30.01"></rect></g><g><circle class="cls-7" cx="907.01" cy="838.56" r="7.78" transform="translate(-117.5 1528.64) rotate(-76.72)"></circle><rect class="cls-7" x="903.95" y="823.55" width="6.11" height="30.01"></rect></g></g></g><circle class="cls-8" cx="806.04" cy="212.32" r="55.55"></circle><path class="cls-11" d="M806.04,181.99h0c-20.37,0-36.88,16.51-36.88,36.88v62.82h73.76v-62.82c0-20.37-16.51-36.88-36.88-36.88Z"></path><rect class="cls-11" x="631.24" y="288.89" width="349.6" height="526.08"></rect><rect class="cls-12" x="631.24" y="671.4" width="349.6" height="8.68"></rect><g><g><path class="cls-8" d="M912.63,775.66h-213.19c-15.74,0-28.5-12.76-28.5-28.5h0c0-15.74,12.76-28.5,28.5-28.5h213.19c15.74,0,28.5,12.76,28.5,28.5h0c0,15.74-12.76,28.5-28.5,28.5Z"></path><circle class="cls-8" cx="806.04" cy="747.15" r="44.79" transform="translate(-192.7 1205.91) rotate(-67.5)"></circle><path class="cls-11" d="M714.88,747.15c0,8.27-6.71,14.98-14.98,14.98s-14.98-6.71-14.98-14.98,6.71-14.98,14.98-14.98,14.98,6.71,14.98,14.98Z"></path><path class="cls-11" d="M923.97,747.15c0,8.27-6.71,14.98-14.98,14.98s-14.98-6.71-14.98-14.98,6.71-14.98,14.98-14.98,14.98,6.71,14.98,14.98Z"></path><path class="cls-11" d="M753.57,747.15c0,8.27-6.71,14.98-14.98,14.98s-14.98-6.71-14.98-14.98,6.71-14.98,14.98-14.98,14.98,6.71,14.98,14.98Z"></path></g><rect class="cls-16" x="779.92" y="736.74" width="52.24" height="22.46"></rect></g></g><path class="cls-23" d="M634.89,843.84c7.63-8.63,29.05-23.9,36.87-24.57,9.26-.79,42.44-1.37,42.44-1.37,0,0,2.43,8.02-6.13,9-4.93,.56-9.02,2.61-14.49,3.88-9.37,2.18-21.62,9.41-19.18,13.86,2.65,4.84,20.28,6.92,24.64,6.79,8.19-.25,11.03,8.93,4.75,8.78-6.08-.15-27.95,4.94-27.95,4.94,0,0-19.77,18.61-38.5,13.15-25.69-7.49-21.11-13.35-2.45-34.45Z"></path><rect class="cls-17" y="1567.6" width="2322.48" height="45.68"></rect></g><g class="cls-32"><path class="cls-11" d="M1292.86,511.78c-3.31,0-6-2.69-6-6s2.69-6.03,6-6.03,6,2.66,6,5.97v.06c0,3.31-2.69,6-6,6Z"></path><path class="cls-11" d="M1292.86,742.84c-3.31,0-6-2.69-6-6v-.11c0-3.31,2.69-6,6-6s6,2.69,6,6v.11c0,3.31-2.69,6-6,6Zm0-25.67c-3.31,0-6-2.69-6-6v-.11c0-3.31,2.69-6,6-6s6,2.69,6,6v.11c0,3.31-2.69,6-6,6Zm0-25.67c-3.31,0-6-2.69-6-6v-.11c0-3.31,2.69-6,6-6s6,2.69,6,6v.11c0,3.31-2.69,6-6,6Zm0-25.67c-3.31,0-6-2.69-6-6v-.11c0-3.31,2.69-6,6-6s6,2.69,6,6v.11c0,3.31-2.69,6-6,6Zm0-25.67c-3.31,0-6-2.69-6-6v-.11c0-3.31,2.69-6,6-6s6,2.69,6,6v.11c0,3.31-2.69,6-6,6Zm0-25.67c-3.31,0-6-2.69-6-6v-.11c0-3.31,2.69-6,6-6s6,2.69,6,6v.11c0,3.31-2.69,6-6,6Zm0-25.67c-3.31,0-6-2.69-6-6v-.11c0-3.31,2.69-6,6-6s6,2.69,6,6v.11c0,3.31-2.69,6-6,6Zm0-25.67c-3.31,0-6-2.69-6-6v-.11c0-3.31,2.69-6,6-6s6,2.69,6,6v.11c0,3.31-2.69,6-6,6Zm0-25.67c-3.31,0-6-2.69-6-6v-.11c0-3.31,2.69-6,6-6s6,2.69,6,6v.11c0,3.31-2.69,6-6,6Z"></path><path class="cls-11" d="M1292.92,768.46c-3.31,0-6.06-2.69-6.06-6s2.69-6.03,6-6.03c2.44,0,4.54,1.44,5.48,3.53,.35,.76,.55,1.61,.55,2.5,0,3.31-2.66,6-5.97,6Z"></path><path class="cls-11" d="M1660.32,768.46h-.11c-3.31,0-6-2.69-6-6s2.69-6,6-6h.11c3.31,0,6,2.69,6,6s-2.69,6-6,6Zm-24.49,0h-.11c-3.31,0-6-2.69-6-6s2.69-6,6-6h.11c3.31,0,6,2.69,6,6s-2.69,6-6,6Zm-24.49,0h-.11c-3.31,0-6-2.69-6-6s2.69-6,6-6h.11c3.31,0,6,2.69,6,6s-2.69,6-6,6Zm-24.49,0h-.11c-3.31,0-6-2.69-6-6s2.69-6,6-6h.11c3.31,0,6,2.69,6,6s-2.69,6-6,6Zm-24.49,0h-.11c-3.31,0-6-2.69-6-6s2.69-6,6-6h.11c3.31,0,6,2.69,6,6s-2.69,6-6,6Zm-24.49,0h-.11c-3.31,0-6-2.69-6-6s2.69-6,6-6h.11c3.31,0,6,2.69,6,6s-2.69,6-6,6Zm-24.49,0h-.11c-3.31,0-6-2.69-6-6s2.69-6,6-6h.11c3.31,0,6,2.69,6,6s-2.69,6-6,6Zm-24.49,0h-.11c-3.31,0-6-2.69-6-6s2.69-6,6-6h.11c3.31,0,6,2.69,6,6s-2.69,6-6,6Zm-24.49,0h-.11c-3.31,0-6-2.69-6-6s2.69-6,6-6h.11c3.31,0,6,2.69,6,6s-2.69,6-6,6Zm-24.49,0h-.11c-3.31,0-6-2.69-6-6s2.69-6,6-6h.11c3.31,0,6,2.69,6,6s-2.69,6-6,6Zm-24.49,0h-.11c-3.31,0-6-2.69-6-6s2.69-6,6-6h.11c3.31,0,6,2.69,6,6s-2.69,6-6,6Zm-24.49,0h-.11c-3.31,0-6-2.69-6-6s2.69-6,6-6h.11c3.31,0,6,2.69,6,6s-2.69,6-6,6Zm-24.49,0h-.11c-3.31,0-6-2.69-6-6s2.69-6,6-6h.11c3.31,0,6,2.69,6,6s-2.69,6-6,6Zm-24.49,0h-.11c-3.31,0-6-2.69-6-6s2.69-6,6-6h.11c3.31,0,6,2.69,6,6s-2.69,6-6,6Zm-24.49,0h-.11c-3.31,0-6-2.69-6-6s2.69-6,6-6h.11c3.31,0,6,2.69,6,6s-2.69,6-6,6Z"></path><path class="cls-11" d="M1684.76,768.48c-2.45,0-4.56-1.46-5.49-3.56-.34-.75-.54-1.59-.54-2.47,0-3.31,2.66-6,5.97-6h.06c3.31,0,6,2.69,6,6s-2.69,6.03-6,6.03Z"></path><path class="cls-11" d="M1684.76,996.57c-3.31,0-6-2.69-6-6v-.11c0-3.31,2.69-6,6-6s6,2.69,6,6v.11c0,3.31-2.69,6-6,6Zm0-25.34c-3.31,0-6-2.69-6-6v-.11c0-3.31,2.69-6,6-6s6,2.69,6,6v.11c0,3.31-2.69,6-6,6Zm0-25.34c-3.31,0-6-2.69-6-6v-.11c0-3.31,2.69-6,6-6s6,2.69,6,6v.11c0,3.31-2.69,6-6,6Zm0-25.34c-3.31,0-6-2.69-6-6v-.11c0-3.31,2.69-6,6-6s6,2.69,6,6v.11c0,3.31-2.69,6-6,6Zm0-25.34c-3.31,0-6-2.69-6-6v-.11c0-3.31,2.69-6,6-6s6,2.69,6,6v.11c0,3.31-2.69,6-6,6Zm0-25.34c-3.31,0-6-2.69-6-6v-.11c0-3.31,2.69-6,6-6s6,2.69,6,6v.11c0,3.31-2.69,6-6,6Zm0-25.34c-3.31,0-6-2.69-6-6v-.11c0-3.31,2.69-6,6-6s6,2.69,6,6v.11c0,3.31-2.69,6-6,6Zm0-25.34c-3.31,0-6-2.69-6-6v-.11c0-3.31,2.69-6,6-6s6,2.69,6,6v.11c0,3.31-2.69,6-6,6Zm0-25.34c-3.31,0-6-2.69-6-6v-.11c0-3.31,2.69-6,6-6s6,2.69,6,6v.11c0,3.31-2.69,6-6,6Z"></path><path class="cls-11" d="M1684.76,1021.85c-3.31,0-6-2.69-6-6s2.69-6.03,6-6.03,6,2.66,6,5.97v.06c0,3.31-2.69,6-6,6Z"></path></g><g><g><rect class="cls-27" x="1058.47" width="487.38" height="487.38" rx="21.52" ry="21.52"></rect><path class="cls-11" d="M1442.36,206.28h-29.28c-.55,0-1,.45-1,1v6.01h-57.91c-45.95,0-83.34,37.39-83.34,83.34v6.74h-5.14c-.55,0-1,.45-1,1v16.6c0,.55,.45,1,1,1h5.14v5.08c0,10.76-8.75,19.51-19.51,19.51s-19.51-8.75-19.51-19.51v-36.5h6.02c.55,0,1-.45,1-1v-16.6c0-.55-.45-1-1-1h-6.02V108.27h5.9c.55,0,1-.45,1-1v-29.28c0-.55-.45-1-1-1h-75.64c-.55,0-1,.45-1,1v29.28c0,.55,.45,1,1,1h5.9v163.69h-6.02c-.55,0-1,.45-1,1v16.6c0,.55,.45,1,1,1h6.02v36.5c0,45.95,37.39,83.34,83.34,83.34s83.34-37.39,83.34-83.34v-5.08h6.91c.55,0,1-.45,1-1v-16.6c0-.55-.45-1-1-1h-6.91v-6.74c0-10.76,8.75-19.51,19.51-19.51h57.91v5.79c0,.55,.45,1,1,1h29.28c.55,0,1-.45,1-1v-75.64c0-.55-.45-1-1-1Zm-118.24,90.35v6.74h-42.76v-6.74c0-40.15,32.66-72.81,72.81-72.81h57.91v42.76h-57.91c-16.57,0-30.04,13.48-30.04,30.04Zm-145.61-24.67V108.27h42.76v163.69h-42.76Zm0,18.6h42.76v36.5c0,16.57,13.48,30.04,30.04,30.04s30.04-13.48,30.04-30.04v-5.08h42.76v5.08c0,40.14-32.66,72.8-72.81,72.8s-72.81-32.66-72.81-72.8v-36.5Z"></path></g><g><rect class="cls-26" x="1462.23" y="319.62" width="385.09" height="385.09" rx="19.24" ry="19.24"></rect><g><g><path class="cls-11" d="M1639.42,381.75c-10.17-4.32-23.49-8.35-31.82-9.81-10.25-1.79-18.87,8.46-18.87,18.87v33.17l14.98-2.03v-19.67c0-2.14,1.74-3.89,3.89-3.89l2.18-.02v5.23h1.94l1.94-1.77,1.94,1.77,1.94-1.77,1.94,1.77,1.94-1.77,1.94,1.77,1.94-1.77,1.94,1.77,1.94-1.77,1.94,1.77,1.94-1.77,1.94,1.77,1.94-1.77,1.94,1.77c.16,0,.31-.03,.46-.06,3.96-.6,7.51-8.65,7.51-12.64s-3.68-7.54-7.49-9.16Z"></path><path class="cls-11" d="M1595.99,490.42l-.22-.29c-4.06-5.49-2.72-10.22-.34-12.6,1.17-1.17,2.71-1.94,4.45-2.22,.51-.08,1.01-.12,1.5-.12h6.46v-7.45h-22.97c-.67,0-1.36-.09-2.05-.24v9.57c0,1.92,1.56,3.47,3.47,3.47h1.63v33.18c0,4.87,3.95,8.83,8.83,8.83,4.88,0,8.83-3.95,8.83-8.83v-13.44c-4.35-4.55-9.29-9.56-9.34-9.61l-.26-.26Z"></path><path class="cls-11" d="M1605.59,480.49h-5.37c-2.21,.67-2.72,3.34-.31,6.59,0,0,5.08,5.15,9.55,9.83,3.5,3.67,6.63,7.04,6.63,7.39v136.13c0,6.37,4.9,11.85,11.26,12.15,6.79,.32,12.4-5.09,12.4-11.82v-208.81c0-3.33,2.7-6.04,6.04-6.04v-8.49h-2.07l-2.07,2.07-2.07-2.07-2.07,2.07-2.07-2.07-2.07,2.07-2.07-2.07-2.07,2.07-2.07-2.07-2.07,2.07-2.07-2.07-2.07,2.07-2.07-2.07-2.07,2.07-2.07-2.07h-2.07c0,2.82,0,5.67,0,8.49,.03,0,.06,0,.1,0l-5.13,.69-14.98,2.03-6.85,.93c-12.89,4.44-16.68,20.85-7.04,30.49,0,0,3.86,2.56,6.17,2.56h25.2c.21,0,.42,.03,.62,.07,1.3,.29,2.28,1.44,2.28,2.83v11.91c0,1.6-1.3,2.9-2.9,2.9h-2.93c-.3,.1-.61,.17-.94,.17h-.63Z"></path></g><g><path class="cls-11" d="M1699.21,443.27l-7.4-15.54c-.27-.57-1.08-.6-1.38-.04-1.75,3.21-6.02,11.69-6.5,19.01-.08,1.13,.04,2.27,.28,3.37,.33-.12,13.93-6.35,15.01-6.81Z"></path><path class="cls-11" d="M1729.92,427.26c-3.21-2.39-12.64-6.09-16.96-7.73-.65-.25-1.27,.43-.97,1.06l8.03,16.99s-23.32,10.65-32.4,15.02l-4.74,2.21,2.47,5.28,2.1-.98c.92,1.52,6.35,10.38,12.67,18.05v117.08c0,5.56,4.27,10.34,9.82,10.6,5.93,.28,10.82-4.44,10.82-10.31v-121.42c2.85-6.07,9.68-19.28,12.32-25.51,2-4.71,7.49-12.44-3.14-20.34Zm-27.74,24.74c.68-.32,1.5-.03,1.82,.65l3.52,7.41c.32,.68,.03,1.5-.65,1.82-.68,.32-1.5,.03-1.82-.65l-3.52-7.41c-.32-.68-.03-1.5,.65-1.82Zm-3.6,1.72c.68-.32,1.5-.03,1.82,.65l3.52,7.41c.32,.68,.03,1.5-.65,1.82-.68,.32-1.5,.03-1.82-.65l-3.52-7.41c-.32-.68-.03-1.5,.65-1.82Zm1.09,11.59c-.68,.32-1.5,.03-1.82-.65l-3.52-7.41c-.23-.49-.15-1.04,.17-1.43l.63-.29-.06-.13c.66-.26,1.41,.03,1.72,.68l3.52,7.41c.32,.68,.03,1.5-.65,1.82Z"></path></g></g></g></g></g></g></svg>